HIERARCHY
ROOT Hips
{
	OFFSET 0.000000 0.000000 0.000000
	CHANNELS 6 Xposition Yposition Zposition Zrotation Yrotation Xrotation 
	JOINT LHipJoint
	{
		OFFSET 0.000000 0.000000 0.000000
		CHANNELS 3 Zrotation Yrotation Xrotation
		JOINT LeftUpLeg
		{
			OFFSET 1.363060 -1.794630 0.839290
			CHANNELS 3 Zrotation Yrotation Xrotation
			JOINT LeftLeg
			{
				OFFSET 2.448110 -6.726130 0.000000
				CHANNELS 3 Zrotation Yrotation Xrotation
				JOINT LeftFoot
				{
					OFFSET 2.562200 -7.039590 0.000000
					CHANNELS 3 Zrotation Yrotation Xrotation
					JOINT LeftToeBase
					{
						OFFSET 0.157640 -0.433110 2.322550
						CHANNELS 3 Zrotation Yrotation Xrotation
						End Site
						{
							OFFSET 0.000000 0.000000 0.000000
						}
					}
				}
			}
		}
	}
	JOINT RHipJoint
	{
		OFFSET 0.000000 0.000000 0.000000
		CHANNELS 3 Zrotation Yrotation Xrotation
		JOINT RightUpLeg
		{
			OFFSET -1.305520 -1.794630 0.839290
			CHANNELS 3 Zrotation Yrotation Xrotation
			JOINT RightLeg
			{
				OFFSET -2.542530 -6.985550 0.000000
				CHANNELS 3 Zrotation Yrotation Xrotation
				JOINT RightFoot
				{
					OFFSET -2.568260 -7.056230 0.000000
					CHANNELS 3 Zrotation Yrotation Xrotation
					JOINT RightToeBase
					{
						OFFSET -0.164730 -0.452590 2.363150
						CHANNELS 3 Zrotation Yrotation Xrotation
						End Site
						{
							OFFSET 0.000000 0.000000 0.000000
						}
					}
				}
			}
		}
	}
	JOINT LowerBack
	{
		OFFSET 0.000000 0.000000 0.000000
		CHANNELS 3 Zrotation Yrotation Xrotation
		JOINT Spine
		{
			OFFSET 0.028270 2.035590 -0.193380
			CHANNELS 3 Zrotation Yrotation Xrotation
			JOINT Spine1
			{
				OFFSET 0.056720 2.048850 -0.042750
				CHANNELS 3 Zrotation Yrotation Xrotation
				JOINT Neck
				{
					OFFSET 0.000000 0.000000 0.000000
					CHANNELS 3 Zrotation Yrotation Xrotation
					JOINT Neck1
					{
						OFFSET -0.054170 1.746240 0.172020
						CHANNELS 3 Zrotation Yrotation Xrotation
						JOINT Head
						{
							OFFSET 0.104070 1.761360 -0.123970
							CHANNELS 3 Zrotation Yrotation Xrotation
							End Site
							{
								OFFSET 0.000000 0.000000 0.000000
							}
						}
					}
				}
				JOINT LeftShoulder
				{
					OFFSET 0.000000 0.000000 0.000000
					CHANNELS 3 Zrotation Yrotation Xrotation
					JOINT LeftArm
					{
						OFFSET 3.362410 1.200890 -0.311210
						CHANNELS 3 Zrotation Yrotation Xrotation
						JOINT LeftForeArm
						{
							OFFSET 4.983000 -0.000000 -0.000000
							CHANNELS 3 Zrotation Yrotation Xrotation
							JOINT LeftHand
							{
								OFFSET 3.483560 -0.000000 -0.000000
								CHANNELS 3 Zrotation Yrotation Xrotation
								JOINT LeftFingerBase
								{
									OFFSET 0.000000 0.000000 0.000000
									CHANNELS 3 Zrotation Yrotation Xrotation
									JOINT LeftHandIndex1
									{
										OFFSET 0.715260 -0.000000 -0.000000
										CHANNELS 3 Zrotation Yrotation Xrotation
										End Site
										{
											OFFSET 0.000000 0.000000 0.000000
										}
									}
								}
								JOINT LThumb
								{
									OFFSET 0.000000 0.000000 0.000000
									CHANNELS 3 Zrotation Yrotation Xrotation
									End Site
									{
										OFFSET 0.000000 0.000000 0.000000
									}
								}
							}
						}
					}
				}
				JOINT RightShoulder
				{
					OFFSET 0.000000 0.000000 0.000000
					CHANNELS 3 Zrotation Yrotation Xrotation
					JOINT RightArm
					{
						OFFSET -3.136600 1.374050 -0.404650
						CHANNELS 3 Zrotation Yrotation Xrotation
						JOINT RightForeArm
						{
							OFFSET -5.241900 -0.000000 -0.000000
							CHANNELS 3 Zrotation Yrotation Xrotation
							JOINT RightHand
							{
								OFFSET -3.444170 -0.000000 -0.000000
								CHANNELS 3 Zrotation Yrotation Xrotation
								JOINT RightFingerBase
								{
									OFFSET 0.000000 0.000000 0.000000
									CHANNELS 3 Zrotation Yrotation Xrotation
									JOINT RightHandIndex1
									{
										OFFSET -0.622530 -0.000000 -0.000000
										CHANNELS 3 Zrotation Yrotation Xrotation
										End Site
										{
											OFFSET 0.000000 0.000000 0.000000
										}
									}
								}
								JOINT RThumb
								{
									OFFSET 0.000000 0.000000 0.000000
									CHANNELS 3 Zrotation Yrotation Xrotation
									End Site
									{
										OFFSET 0.000000 0.000000 0.000000
									}
								}
							}
						}
					}
				}
			}
		}
	}
}
MOTION
Frames: 9
Frame Time: 0.008333
0.029521 17.130735 -1.550703 167.992593 -82.252286 -156.052556 -11.250768 1.613325 0.936896 -3.660079 17.698393 -17.122891 -2.857314 -1.359083 2.915547 0.676412 3.789256 -5.925412 -179.930800 0.000000 -92.710600 8.685069 -1.743902 4.048154 8.145680 6.012607 -21.793077 1.583750 -0.165854 20.158570 -2.486977 -9.649660 -10.141922 -0.187900 0.000000 -55.809500 0.020602 -1.574013 -6.406914 -0.552120 -1.702824 -4.528489 -5.682703 -1.751353 -2.273809 6.328599 -1.892084 -1.780139 -2.972652 -0.289068 1.631974 0.000000 0.000000 0.000000 3.205501 1.535101 1.226091 -53.498795 -32.611350 -5.557425 -0.359504 -65.091594 -0.065873 7.691496 6.666576 0.426075 -0.097389 0.429267 0.000000 0.000000 0.000000 0.000000 0.000000 0.000000 0.000000 7.867069 2.515426 -1.578855 74.683588 42.164210 11.031569 -0.341825 50.251901 -0.062361 -6.761873 11.954394 -0.735472 -0.029526 -0.499268 -0.000000 0.000000 0.000000 0.000000 0.000000 0.000000 0.000000 
0.025971 17.123603 -1.585436 168.183704 -81.986195 -156.393266 -11.250088 1.615677 0.930812 -3.487284 17.618003 -17.037976 -2.821596 -1.325165 3.341670 0.722115 4.099948 -6.089321 -179.942000 -0.000001 -92.341100 8.684471 -1.746778 4.029235 8.228972 6.069565 -21.715540 1.593119 -0.197183 20.456377 -2.457396 -9.450682 -10.355693 -0.132300 -0.000000 -55.720900 0.067891 -1.533632 -6.387316 -0.566404 -1.671701 -4.504713 -5.797222 -1.728711 -2.122337 6.501693 -1.703966 -1.883890 -3.062958 -0.292939 1.597293 0.000000 0.000000 0.000000 2.841883 1.492350 1.500308 -53.741050 -31.275023 -4.631869 -0.542061 -62.859605 -0.058722 7.062272 7.875353 0.470525 -0.103162 0.385822 0.000000 0.000000 0.000000 0.000000 0.000000 0.000000 0.000000 8.581554 2.767126 -1.443324 75.002704 40.851905 11.329748 -0.149598 48.396934 -0.051057 -5.978901 11.136900 -0.605268 -0.025136 -0.464461 -0.000000 0.000000 0.000000 0.000000 0.000000 0.000000 0.000000 
0.020951 17.116634 -1.619856 168.385562 -81.713900 -156.746163 -11.248266 1.616378 0.929460 -3.314471 17.529329 -16.970148 -2.788262 -1.291994 3.827422 0.770300 4.393821 -6.358829 -179.966300 -0.000000 -92.054600 8.683216 -1.752022 4.008144 8.317109 6.098754 -21.621200 1.606936 -0.225122 20.724074 -2.420892 -9.221230 -10.561288 -0.079100 0.000001 -55.646800 0.123723 -1.491046 -6.371948 -0.579401 -1.639531 -4.480851 -5.912998 -1.704818 -1.966269 6.673606 -1.525399 -1.988545 -3.158283 -0.297142 1.562043 0.000000 0.000000 0.000000 2.462029 1.497123 1.753360 -54.016700 -29.962117 -3.695717 -0.752921 -60.563808 -0.052895 6.439051 8.910839 0.491679 -0.108695 0.346323 0.000000 0.000000 0.000000 0.000000 0.000000 0.000000 0.000000 9.313144 2.976671 -1.318243 75.287803 39.505390 11.548329 0.053367 46.572998 -0.041353 -5.266502 10.424746 -0.498565 -0.020281 -0.431494 -0.000000 0.000000 0.000000 0.000000 0.000000 0.000000 0.000000 
0.014624 17.109817 -1.653811 168.605269 -81.433689 -157.120492 -11.245444 1.615106 0.931567 -3.137962 17.425184 -16.911844 -2.754805 -1.258636 4.376937 0.824932 4.699896 -6.734724 179.995100 0.000000 -91.861499 8.681068 -1.758514 3.984196 8.409143 6.108692 -21.505545 1.624194 -0.250131 20.964247 -2.379206 -8.969239 -10.759863 -0.028400 -0.000000 -55.583300 0.189570 -1.446437 -6.357382 -0.590559 -1.606501 -4.456816 -6.028175 -1.679750 -1.808243 6.840704 -1.355134 -2.093485 -3.257760 -0.301645 1.526436 0.000000 0.000000 0.000000 2.070895 1.549911 1.980368 -54.327697 -28.670183 -2.755295 -0.988199 -58.196245 -0.048381 5.856074 9.734010 0.493241 -0.114193 0.311343 0.000000 0.000000 0.000000 0.000000 0.000000 0.000000 0.000000 10.052213 3.144501 -1.204482 75.540533 38.127112 11.686814 0.262707 44.770201 -0.033201 -4.636064 9.840376 -0.413960 -0.014992 -0.400727 -0.000000 0.000000 0.000000 0.000000 0.000000 0.000000 0.000000 
0.007198 17.103086 -1.687082 168.854697 -81.143251 -157.529929 -11.241986 1.611807 0.936227 -2.952214 17.293290 -16.852197 -2.717652 -1.223755 4.988176 0.890024 5.051392 -7.200889 179.942300 0.000000 -91.733900 8.677754 -1.764902 3.956715 8.504385 6.110589 -21.365059 1.643803 -0.272952 21.180823 -2.334283 -8.703696 -10.952437 0.019700 -0.000000 -55.528300 0.267599 -1.399662 -6.340126 -0.599241 -1.572580 -4.432495 -6.140999 -1.653353 -1.650913 6.999833 -1.191482 -2.198005 -3.360597 -0.306425 1.490718 0.000000 0.000000 0.000000 1.673580 1.649332 2.177478 -54.675303 -27.395468 -1.815382 -1.242643 -55.753472 -0.045032 5.341900 10.326679 0.481105 -0.119734 0.280987 0.000000 0.000000 0.000000 0.000000 0.000000 0.000000 0.000000 10.790107 3.273210 -1.101897 75.758583 36.721061 11.744387 0.474409 42.978875 -0.026459 -4.093406 9.389365 -0.348456 -0.009321 -0.372286 0.000000 0.000000 0.000000 0.000000 0.000000 0.000000 0.000000 
-0.001108 17.096359 -1.719450 169.146707 -80.839882 -157.988298 -11.238546 1.606856 0.941937 -2.752779 17.125625 -16.781086 -2.673314 -1.185664 5.654598 0.968721 5.479014 -7.724799 179.876900 -0.000000 -91.644300 8.673024 -1.770028 3.925477 8.602579 6.116459 -21.197327 1.664701 -0.294444 21.378643 -2.288139 -8.433908 -11.140297 0.065100 -0.000000 -55.478200 0.360227 -1.350389 -6.316690 -0.604859 -1.537634 -4.407908 -6.250224 -1.625403 -1.497382 7.148480 -1.029143 -2.300440 -3.466233 -0.311487 1.455401 0.000000 0.000000 0.000000 1.274264 1.792362 2.342610 -55.060444 -26.130875 -0.879298 -1.510069 -53.238748 -0.042584 4.913834 10.691942 0.461174 -0.125229 0.254945 0.000000 0.000000 0.000000 0.000000 0.000000 0.000000 0.000000 11.519435 3.370557 -1.009638 75.937475 35.287464 11.711494 0.685008 41.195585 -0.020906 -3.631095 9.063968 -0.298150 -0.003474 -0.346119 0.000000 0.000000 0.000000 0.000000 0.000000 0.000000 0.000000 
-0.010104 17.089498 -1.750667 169.490468 -80.521291 -158.504642 -11.235647 1.600778 0.948138 -2.536665 16.910800 -16.687984 -2.618173 -1.143078 6.363038 1.063513 6.010158 -8.265771 179.801300 -0.000000 -91.538200 8.666814 -1.772891 3.890303 8.703380 6.137126 -21.002341 1.686008 -0.315702 21.564320 -2.242388 -8.167129 -11.325169 0.108000 0.000000 -55.431700 0.469477 -1.298144 -6.284627 -0.607015 -1.501408 -4.383003 -6.355106 -1.595544 -1.349689 7.285579 -0.867632 -2.400168 -3.574745 -0.316869 1.420718 0.000000 0.000000 0.000000 0.877292 1.973482 2.474756 -55.482505 -24.866424 0.049819 -1.783341 -50.664449 -0.040734 4.576124 10.854562 0.438445 -0.130435 0.232575 0.000000 0.000000 0.000000 0.000000 0.000000 0.000000 0.000000 12.238167 3.440623 -0.925734 76.069585 33.832551 11.589283 0.891895 39.415819 -0.016333 -3.244171 8.844302 -0.259747 0.002458 -0.322013 -0.000000 0.000000 0.000000 0.000000 0.000000 0.000000 0.000000 
-0.019517 17.082447 -1.780607 169.887745 -80.184903 -159.081775 -11.234131 1.594391 0.952115 -2.304955 16.656835 -16.571677 -2.551473 -1.094208 7.101550 1.172217 6.642885 -8.769360 179.720700 -0.000001 -91.409500 8.659075 -1.773078 3.852722 8.806209 6.184167 -20.781697 1.706767 -0.337644 21.743325 -2.198738 -7.911434 -11.507539 0.148700 0.000000 -55.388900 0.597026 -1.242315 -6.242163 -0.605599 -1.463558 -4.358505 -6.456334 -1.563484 -1.212167 7.411232 -0.689426 -2.493092 -3.686148 -0.322629 1.387806 0.000000 0.000000 0.000000 0.481819 2.192735 2.576455 -55.935885 -23.598341 0.976401 -2.055831 -48.045684 -0.039221 4.321823 10.856971 0.416016 -0.135099 0.213100 0.000000 0.000000 0.000000 0.000000 0.000000 0.000000 0.000000 12.942481 3.506902 -0.849176 76.149583 32.338226 11.325709 1.092463 37.663161 -0.012433 -2.884495 8.697637 -0.227044 0.007764 -0.299697 -0.000000 0.000000 0.000000 0.000000 0.000000 0.000000 0.000000 
-0.029088 17.075044 -1.809020 170.341204 -79.830188 -159.723391 -11.234282 1.587676 0.953222 -2.057632 16.355749 -16.421047 -2.470087 -1.039091 7.848187 1.297104 7.401080 -9.200731 179.639900 0.000000 -91.218100 8.649963 -1.769663 3.810359 8.912274 6.258313 -20.533898 1.727174 -0.361279 21.921205 -2.157189 -7.666169 -11.690704 0.187700 -0.000000 -55.331600 0.742981 -1.183295 -6.184674 -0.600225 -1.424331 -4.333228 -6.551319 -1.529318 -1.084007 7.524476 -0.521142 -2.583182 -3.800985 -0.328814 1.355744 0.000000 0.000000 0.000000 0.098918 2.424124 2.646372 -56.429111 -22.286074 1.882582 -2.318369 -45.424535 -0.037733 4.119930 10.752167 0.394285 -0.138626 0.195622 0.000000 0.000000 0.000000 0.000000 0.000000 0.000000 0.000000 13.637509 3.546495 -0.774456 76.161897 30.842572 11.017715 1.285670 35.909670 -0.009253 -2.612090 8.594719 -0.203141 0.013428 -0.278831 -0.000000 0.000000 0.000000 0.000000 0.000000 0.000000 0.000000 
